<?xml version="1.0" ?><svg id="Layer_1" style="enable-background:new 0 0 64 64;" version="1.1" viewBox="0 0 64 64" xml:space="preserve" xmlns="http://www.w3.org/2000/svg" xmlns:xlink="http://www.w3.org/1999/xlink"><style type="text/css">
	.st0{fill:none;stroke:#000000;stroke-width:2;stroke-linejoin:round;stroke-miterlimit:10;}
</style><path d="M26,25c0-0.4-0.238-0.762-0.606-0.919l-7-3l-0.788,1.838L22.461,25l-4.855,2.081l0.788,1.838l7-3  C25.762,25.762,26,25.4,26,25z"/><path d="M45.606,21.081l-7,3C38.238,24.238,38,24.6,38,25s0.238,0.762,0.606,0.919l7,3l0.788-1.838L41.539,25l4.855-2.081  L45.606,21.081z"/><path d="M32,4C16.561,4,4,16.561,4,32s12.561,28,28,28s28-12.561,28-28S47.439,4,32,4z M32,58C17.664,58,6,46.336,6,32  S17.664,6,32,6s26,11.664,26,26S46.336,58,32,58z"/><path d="M36.5,38.75c-1.93,0-3.5,1.57-3.5,3.5c0,0.551-0.449,1-1,1s-1-0.449-1-1c0-1.93-1.57-3.5-3.5-3.5s-3.5,1.57-3.5,3.5v0.5h2  v-0.5c0-0.827,0.673-1.5,1.5-1.5s1.5,0.673,1.5,1.5c0,1.654,1.346,3,3,3s3-1.346,3-3c0-0.827,0.673-1.5,1.5-1.5s1.5,0.673,1.5,1.5  v0.5h2v-0.5C40,40.32,38.43,38.75,36.5,38.75z"/></svg>