<?xml version="1.0" ?><svg id="Layer_1" style="enable-background:new 0 0 64 64;" version="1.1" viewBox="0 0 64 64" xml:space="preserve" xmlns="http://www.w3.org/2000/svg" xmlns:xlink="http://www.w3.org/1999/xlink"><style type="text/css">
	.st0{fill:none;stroke:#000000;stroke-width:2;stroke-linejoin:round;stroke-miterlimit:10;}
</style><path d="M32,4C16.561,4,4,16.561,4,32s12.561,28,28,28s28-12.561,28-28S47.439,4,32,4z M32,58C17.663,58,6,46.336,6,32  S17.663,6,32,6s26,11.664,26,26S46.337,58,32,58z"/><path d="M22.5,21c-2.206,0-4,1.794-4,4s1.794,4,4,4s4-1.794,4-4S24.706,21,22.5,21z M22.5,27c-1.103,0-2-0.897-2-2s0.897-2,2-2  s2,0.897,2,2S23.603,27,22.5,27z"/><path d="M41.5,31c3.309,0,6-2.691,6-6s-2.691-6-6-6s-6,2.691-6,6S38.191,31,41.5,31z M41.5,21c2.206,0,4,1.794,4,4s-1.794,4-4,4  s-4-1.794-4-4S39.294,21,41.5,21z"/><rect height="2" width="6" x="19.5" y="18"/><rect height="2" width="9" x="37" y="13"/><rect height="2" width="13" x="35" y="41"/></svg>