<?xml version="1.0" ?><svg id="Layer_1" style="enable-background:new 0 0 64 64;" version="1.1" viewBox="0 0 64 64" xml:space="preserve" xmlns="http://www.w3.org/2000/svg" xmlns:xlink="http://www.w3.org/1999/xlink"><style type="text/css">
	.st0{fill:none;stroke:#000000;stroke-width:2;stroke-linejoin:round;stroke-miterlimit:10;}
</style><path d="M22.317,29.461c0.09,0.026,0.182,0.039,0.274,0.039s0.185-0.013,0.274-0.039c3.912-1.118,5.617-4.145,5.279-6.558  c-0.201-1.438-1.183-2.404-2.442-2.404c-1.481,0-2.477,0.697-3.111,1.421c-0.634-0.725-1.629-1.421-3.11-1.421  c-1.26,0-2.241,0.966-2.442,2.404C16.701,25.316,18.405,28.344,22.317,29.461z M19.02,23.181c0.029-0.205,0.131-0.681,0.462-0.681  c1.565,0,2.141,1.589,2.161,1.649c0.136,0.406,0.515,0.677,0.942,0.68c0.003,0,0.006,0,0.008,0c0.425,0,0.805-0.271,0.945-0.673  c0.023-0.067,0.599-1.657,2.165-1.657c0.331,0,0.433,0.476,0.462,0.681c0.164,1.175-0.673,3.331-3.573,4.273  C19.691,26.512,18.855,24.356,19.02,23.181z"/><path d="M41.134,29.461c0.09,0.026,0.182,0.039,0.274,0.039s0.185-0.013,0.274-0.039c3.912-1.118,5.616-4.145,5.278-6.558  c-0.201-1.438-1.183-2.404-2.442-2.404c-1.481,0-2.477,0.697-3.11,1.421c-0.635-0.725-1.63-1.421-3.111-1.421  c-1.26,0-2.241,0.966-2.442,2.404C35.517,25.316,37.222,28.344,41.134,29.461z M37.835,23.181c0.029-0.205,0.131-0.681,0.462-0.681  c1.566,0,2.142,1.589,2.163,1.65c0.136,0.408,0.518,0.684,0.948,0.684s0.813-0.275,0.949-0.684c0.005-0.017,0.567-1.649,2.161-1.649  c0.331,0,0.433,0.477,0.462,0.681c0.164,1.175-0.672,3.331-3.572,4.273C38.508,26.512,37.671,24.356,37.835,23.181z"/><path d="M32,4C16.561,4,4,16.561,4,32s12.561,28,28,28s28-12.561,28-28S47.439,4,32,4z M32,58C17.663,58,6,46.336,6,32  S17.663,6,32,6s26,11.664,26,26S46.337,58,32,58z"/><path d="M46,34H18c-0.524,0-0.96,0.405-0.997,0.929c-0.019,0.261-0.409,6.432,3.697,10.841C23.313,48.577,27.115,50,32,50  s8.687-1.423,11.3-4.23c4.106-4.41,3.716-10.581,3.697-10.841C46.96,34.405,46.524,34,46,34z M41.824,44.42  C39.604,46.795,36.3,48,32,48s-7.604-1.205-9.824-3.58c-2.648-2.834-3.112-6.675-3.179-8.42h26.006  C44.937,37.745,44.473,41.585,41.824,44.42z"/></svg>